<svg width="800" height="800" viewBox="0 0 800 800" fill="none" xmlns="http://www.w3.org/2000/svg">
<path d="M631.039 411.753C609.545 396.729 584.266 388.756 557.398 388.633C557.154 388.633 556.91 388.633 556.605 388.633H484.246L520.212 326.081C520.212 326.081 520.517 325.529 520.7 325.222C528.211 312.098 533.401 297.932 536.027 283.152C545.675 229.247 520.456 174.666 473.194 147.253C411.338 111.378 331.836 132.719 296.053 194.965C280.727 221.581 275.292 252.919 280.727 283.152C283.719 299.71 289.703 315.287 298.557 329.454L332.568 388.633H260.088C260.088 388.633 259.66 388.633 259.477 388.633C232.976 388.633 207.514 396.606 185.776 411.692C150.787 436.039 129.843 476.146 129.843 518.89C129.843 590.703 188.035 649.147 259.538 649.147C307.716 649.147 351.681 622.532 374.213 579.665L408.346 520.301L442.48 579.665C465.073 622.532 508.976 649.147 557.215 649.147C628.719 649.147 686.911 590.703 686.911 518.89C686.911 476.146 666.028 436.1 631.039 411.753ZM347.712 564.578C347.712 564.578 347.529 564.946 347.406 565.13C330.187 598.063 296.542 618.484 259.599 618.484C204.888 618.484 160.435 573.777 160.435 518.89C160.435 486.203 176.433 455.54 203.3 436.897C219.848 425.368 239.327 419.297 259.233 419.297C259.722 419.297 260.515 419.297 261.004 419.297H353.757L332.385 456.828H260.21C244.822 456.828 230.168 462.47 218.81 472.773C205.804 484.548 198.354 501.351 198.354 518.89C198.354 553.11 226.076 580.952 260.21 580.952C266.683 580.952 273.094 579.91 279.261 577.947C294.466 572.98 307.472 562.003 314.616 548.266L338.186 507.238L354.306 479.887C354.306 479.887 354.306 479.703 354.429 479.642L421.414 361.834L463.485 287.936C463.668 287.568 463.852 287.2 464.035 286.893C477.59 257.947 466.599 222.746 438.999 206.74C409.445 189.63 371.587 199.81 354.551 229.492C344.475 247.031 343.56 268.495 352.108 286.832C352.291 287.2 352.475 287.568 352.719 287.997L390.638 354.291L371.16 388.572H367.923L324.936 313.815C324.936 313.815 324.752 313.448 324.63 313.264C317.791 302.347 313.151 290.389 310.83 277.633C306.678 254.513 310.83 230.596 322.554 210.235C349.91 162.646 410.728 146.334 458.051 173.746C494.138 194.659 513.495 236.422 506.106 277.633C504.091 288.917 500.122 299.772 494.383 309.829C494.383 309.829 494.199 310.197 494.138 310.32L444.8 396.115L395.34 481.972L347.895 564.578H347.712ZM314.372 487.43L287.871 533.425C284.085 540.661 277.491 546.242 269.797 548.756C266.683 549.799 263.446 550.289 260.149 550.289C242.868 550.289 228.824 536.184 228.824 518.89C228.824 509.875 232.488 501.596 239.205 495.586C244.883 490.374 252.333 487.491 260.149 487.491H314.372V487.43ZM379.525 273.34C375.434 264.141 375.983 253.532 380.991 244.823C389.6 229.799 408.835 224.647 423.734 233.294C437.534 241.328 443.152 258.806 436.679 273.279L408.163 323.382L379.525 273.279V273.34ZM557.215 618.484C520.273 618.484 486.628 598.063 469.408 565.13C469.286 564.946 469.225 564.762 469.103 564.578L426.054 489.699L427.337 487.491H467.088L501.954 547.775C509.465 562.064 522.532 573.103 537.798 578.009C543.904 579.971 550.254 580.952 556.666 580.952C590.738 580.952 618.521 553.11 618.521 518.89C618.521 501.412 611.133 484.67 598.249 472.896C586.891 462.532 572.114 456.828 556.666 456.828H445.044L466.66 419.297H556.666C556.666 419.297 557.093 419.297 557.276 419.297C577.61 419.297 597.089 425.429 613.698 436.959C640.443 455.602 656.441 486.203 656.441 518.89C656.441 573.839 611.927 618.484 557.276 618.484H557.215ZM502.443 487.43H556.605C564.421 487.43 571.87 490.312 577.61 495.586C584.266 501.658 587.868 509.875 587.868 518.89C587.868 536.246 573.824 550.289 556.544 550.289C553.307 550.289 550.071 549.799 547.018 548.818C539.263 546.303 532.668 540.722 528.577 532.934L502.382 487.43H502.443Z" fill="url(#paint0_linear_1_1040)"/>
<defs>
<linearGradient id="paint0_linear_1_1040" x1="151.008" y1="389.492" x2="748.518" y2="389.492" gradientUnits="userSpaceOnUse">
<stop stop-color="#9C96FA"/>
<stop offset="0.39" stop-color="#6385FF"/>
<stop offset="0.665" stop-color="#379EFF"/>
<stop offset="0.89" stop-color="#3AC3ED"/>
<stop offset="1" stop-color="#72DEFF"/>
</linearGradient>
</defs>
</svg>
